<svg style='width:100%;height:auto;font-size:80%;font-family:Jost;margin:10px 0 10px 0;' xmlns='http://www.w3.org/2000/svg'  class="pikchr" viewBox="0 0 177.12 157.569"><def><style type="text/css">@import url(https://fonts.googleapis.com/css2?family=Jost:ital,wght@0,100;0,200;0,300;0,400;0,500;0,600;0,700;0,800;0,900;1,100;1,200;1,300;1,400;1,500;1,600;1,700;1,800;1,900);</style></def>
<path d="M131.76,2.16L174.96,76.9846L2.16,76.9846L45.36,2.16Z"  style="fill:none;stroke-width:2.16;stroke-linejoin:round;stroke:rgb(26,42,101);" />
<text lengthAdjust="spacingAndGlyphs"  x="88.56" y="39.5723" text-anchor="middle" font-weight="bold" fill="rgb(19,157,234)" font-size="156.25%" dominant-baseline="central">BIGDATA</text>
<path d="M174.96,80.5846L131.76,155.409L45.36,155.409L2.16,80.5846Z"  style="fill:rgb(26,42,101);stroke-width:2.16;stroke-linejoin:round;stroke:rgb(26,42,101);" />
<text x="88.56" y="117.997" text-anchor="middle" fill="rgb(255,255,255)" dominant-baseline="central"></text>
<path d="M65.9418,145.177L103.382,145.177A2.88 2.88 0 0 0 106.262 142.297L106.262,100.537A2.88 2.88 0 0 0 103.382 97.6569L65.9418,97.6569A2.88 2.88 0 0 0 63.0618 100.537L63.0618,142.297A2.88 2.88 0 0 0 65.9418 145.177Z"  style="fill:none;stroke-width:2.16;stroke:rgb(236,236,236);" />
<path d="M52.3853,112.9L72.5453,112.9A2.88 2.88 0 0 0 75.4253 110.02L75.4253,89.8604A2.88 2.88 0 0 0 72.5453 86.9804L52.3853,86.9804A2.88 2.88 0 0 0 49.5053 89.8604L49.5053,110.02A2.88 2.88 0 0 0 52.3853 112.9Z"  style="fill:rgb(51,158,57);stroke-width:3.24;stroke:rgb(26,42,101);" />
<path d="M113.215,109.177L124.735,109.177A2.88 2.88 0 0 0 127.615 106.297L127.615,94.7769A2.88 2.88 0 0 0 124.735 91.8969L113.215,91.8969A2.88 2.88 0 0 0 110.335 94.7769L110.335,106.297A2.88 2.88 0 0 0 113.215 109.177Z"  style="fill:rgb(248,175,19);" />
<path d="M92.5818,114.217L97.6218,114.217A2.88 2.88 0 0 0 100.502 111.337L100.502,106.297A2.88 2.88 0 0 0 97.6218 103.417L92.5818,103.417A2.88 2.88 0 0 0 89.7018 106.297L89.7018,111.337A2.88 2.88 0 0 0 92.5818 114.217Z"  style="fill:rgb(209,0,30);" />
<path d="M87.4182,150.813L111.898,150.813A2.88 2.88 0 0 0 114.778 147.933L114.778,123.453A2.88 2.88 0 0 0 111.898 120.573L87.4182,120.573A2.88 2.88 0 0 0 84.5382 123.453L84.5382,147.933A2.88 2.88 0 0 0 87.4182 150.813Z"  style="fill:rgb(19,157,234);stroke-width:3.24;stroke:rgb(26,42,101);" />
<text x="99.6582" y="135.693" text-anchor="middle" font-weight="bold" fill="rgb(0,0,0)" font-size="125%" dominant-baseline="central">PE</text>
</svg>

